<?xml version="1.0" encoding="UTF-8" standalone="no"?>
<!-- Created with Inkscape (http://www.inkscape.org/) -->

<svg
   version="1.1"
   id="svg32"
   width="797.47998"
   height="241.88933"
   viewBox="0 0 797.47998 241.88933"
   xmlns="http://www.w3.org/2000/svg"
   xmlns:svg="http://www.w3.org/2000/svg">
  <defs
     id="defs36">
    <clipPath
       clipPathUnits="userSpaceOnUse"
       id="clipPath48">
      <path
         d="M 0,181.417 H 598.11 V 0 H 0 Z"
         id="path46" />
    </clipPath>
  </defs>
  <g
     id="g40"
     transform="matrix(1.3333333,0,0,-1.3333333,0,241.88933)">
    <g
       id="g42">
      <g
         id="g44"
         clip-path="url(#clipPath48)">
        <g
           id="g50"
           transform="translate(59.2578,150.0531)">
          <path
             d="m 0,0 c -1.377,0 -2.426,-1.302 -2.426,-3.146 0,-1.479 0.91,-3.045 2.552,-3.045 1.403,0 2.388,1.289 2.388,3.108 C 2.514,-1.34 1.478,0 0,0 M 4.725,-7.909 C 4.422,-7.834 3.828,-7.682 2.817,-6.811 1.769,-7.72 0.43,-7.783 0,-7.783 c -2.54,0 -4.207,1.908 -4.207,4.687 0,2.717 1.667,4.688 4.245,4.688 2.388,0 4.27,-1.744 4.27,-4.549 0,-0.884 -0.215,-1.958 -0.644,-2.703 0.113,-0.304 0.821,-0.67 1.352,-0.67 0.088,0 0.176,0.025 0.176,0.025 z"
             style="fill:#ffffff;fill-opacity:1;fill-rule:nonzero;stroke:none"
             id="path52" />
        </g>
        <g
           id="g54"
           transform="translate(115.7793,142.4974)">
          <path
             d="M 0,0 H -1.946 L -3.197,6.203 -4.485,0 h -1.946 l -1.857,8.92 h 1.705 L -5.37,2.122 -3.98,8.92 h 1.554 L -1.011,2.122 0.24,8.92 h 1.718 z"
             style="fill:#ffffff;fill-opacity:1;fill-rule:nonzero;stroke:none"
             id="path56" />
        </g>
        <g
           id="g58"
           transform="translate(164.6416,142.4974)">
          <path
             d="M 0,0 V 8.92 H 6.342 V 7.429 H 1.643 V 5.332 H 5.951 V 3.892 H 1.643 V 1.504 H 6.658 L 6.658,0 Z"
             style="fill:#ffffff;fill-opacity:1;fill-rule:nonzero;stroke:none"
             id="path60" />
        </g>
        <g
           id="g62"
           transform="translate(220.2061,147.1976)">
          <path
             d="m 0,0 h 1.289 c 1.2,0 1.958,0.354 1.958,1.402 0,0.96 -0.657,1.377 -1.731,1.377 H 0 Z M 1.996,4.22 C 3.752,4.22 4.94,3.07 4.94,1.39 4.94,0.53 4.599,-0.594 3.184,-1.062 L 5.167,-4.7 H 3.259 L 1.503,-1.39 H 0 V -4.7 h -1.655 v 8.92 z"
             style="fill:#ffffff;fill-opacity:1;fill-rule:nonzero;stroke:none"
             id="path64" />
        </g>
        <g
           id="g66"
           transform="translate(276.4326,149.9134)">
          <path
             d="M 0,0 V -7.416 H -1.668 V 0 H -4.094 V 1.504 H 2.463 V 0 Z"
             style="fill:#ffffff;fill-opacity:1;fill-rule:nonzero;stroke:none"
             id="path68" />
        </g>
        <g
           id="g70"
           transform="translate(330.4297,146.0228)">
          <path
             d="M 0,0 V -3.525 H -1.655 V 0 l -2.982,5.395 h 1.895 l 1.933,-3.69 1.946,3.69 h 1.87 z"
             style="fill:#ffffff;fill-opacity:1;fill-rule:nonzero;stroke:none"
             id="path72" />
        </g>
        <g
           id="g74"
           transform="translate(386.2129,145.8958)">
          <path
             d="m 0,0 c 0,-0.758 -0.013,-1.137 -0.152,-1.579 -0.29,-0.898 -1.314,-2.047 -3.499,-2.047 -1.428,0 -2.932,0.556 -3.399,2.022 -0.139,0.455 -0.139,0.872 -0.139,1.819 v 5.306 h 1.68 V 0.038 c 0,-0.53 0,-0.72 0.088,-0.985 0.165,-0.531 0.645,-1.062 1.832,-1.062 0.215,0 1.441,0 1.807,1.011 0.101,0.291 0.114,0.53 0.114,1.125 v 5.394 l 1.668,0 z"
             style="fill:#ffffff;fill-opacity:1;fill-rule:nonzero;stroke:none"
             id="path76" />
        </g>
        <path
           d="m 436.787,151.417 h 1.643 v -8.92 h -1.643 z"
           style="fill:#ffffff;fill-opacity:1;fill-rule:nonzero;stroke:none"
           id="path78" />
        <g
           id="g80"
           transform="translate(490.6562,143.8236)">
          <path
             d="m 0,0 c 1.327,0 2.578,1.023 2.578,3.045 0,1.593 -0.834,3.247 -2.602,3.247 -1.466,0 -2.552,-1.149 -2.552,-3.107 C -2.576,1.795 -1.907,0 0,0 m -0.012,7.821 c 2.717,0 4.27,-2.223 4.27,-4.636 0,-2.022 -1.099,-4.739 -4.308,-4.739 -2.628,0 -4.245,2.173 -4.245,4.675 0,2.615 1.705,4.7 4.283,4.7"
             style="fill:#ffffff;fill-opacity:1;fill-rule:nonzero;stroke:none"
             id="path82" />
        </g>
        <g
           id="g84"
           transform="translate(544.3838,146.8939)">
          <path
             d="m 0,0 h 1.466 c 1.187,0 1.781,0.556 1.781,1.604 0,1.441 -1.162,1.492 -1.971,1.492 H 0 Z m 1.794,4.523 c 1.845,0 3.172,-1.137 3.172,-2.968 0,-1.617 -0.936,-2.919 -3.26,-2.919 H 0 v -3.032 h -1.667 v 8.919 z"
             style="fill:#ffffff;fill-opacity:1;fill-rule:nonzero;stroke:none"
             id="path86" />
        </g>
        <g
           id="g88"
           transform="translate(68.665,109.8104)">
          <path
             d="m 0,0 -1.238,-4.106 h 2.464 z m 2.186,-7.315 -0.519,1.743 h -3.348 l -0.517,-1.743 h -1.795 l 3.02,8.919 h 1.895 l 3.045,-8.919 z"
             style="fill:#ffffff;fill-opacity:1;fill-rule:nonzero;stroke:none"
             id="path90" />
        </g>
        <g
           id="g92"
           transform="translate(124.9077,108.8123)">
          <path
             d="m 0,0 c -0.278,0.455 -0.922,1.326 -2.325,1.326 -0.379,0 -1.668,-0.139 -1.668,-1.086 0,-0.695 0.682,-0.859 1.63,-1.061 l 0.935,-0.202 c 1.403,-0.304 2.893,-0.847 2.893,-2.641 0,-2.211 -2.198,-2.881 -3.79,-2.881 -1.491,0 -3.108,0.531 -3.904,1.908 l 1.402,0.973 c 0.392,-0.581 1.125,-1.34 2.767,-1.34 0.973,0 1.719,0.404 1.719,1.176 0,0.732 -0.594,0.896 -1.719,1.149 l -1.137,0.253 c -1.137,0.252 -2.552,0.733 -2.552,2.477 0,1.579 1.276,2.779 3.525,2.779 0.796,0 2.363,-0.127 3.601,-1.807 z"
             style="fill:#ffffff;fill-opacity:1;fill-rule:nonzero;stroke:none"
             id="path94" />
        </g>
        <g
           id="g96"
           transform="translate(175.6978,103.9989)">
          <path
             d="m 0,0 h 1.036 c 1.933,0 3.083,0.366 3.083,2.88 0,2.198 -1.087,3.032 -2.742,3.032 H 0 Z m 1.807,7.416 c 2.11,0 4.08,-1.339 4.08,-4.536 0,-2.856 -1.554,-4.384 -4.181,-4.384 h -3.374 v 8.92 z"
             style="fill:#ffffff;fill-opacity:1;fill-rule:nonzero;stroke:none"
             id="path98" />
        </g>
        <g
           id="g100"
           transform="translate(230.7368,109.9237)">
          <path
             d="M 0,0 V -2.224 H 3.727 V -3.651 H 0 v -3.778 h -1.655 v 8.92 h 5.9 V 0 Z"
             style="fill:#ffffff;fill-opacity:1;fill-rule:nonzero;stroke:none"
             id="path102" />
        </g>
        <g
           id="g104"
           transform="translate(288.0884,102.495)">
          <path
             d="m 0,0 v 0.758 c -0.72,-0.669 -1.453,-0.986 -2.451,-0.986 -2.135,0 -4.182,1.567 -4.182,4.599 0,2.098 1.301,4.776 4.321,4.776 1.908,0 3.222,-1.212 3.752,-2.627 L -0.152,5.888 c -0.151,0.429 -0.619,1.756 -2.173,1.756 -1.504,0 -2.489,-1.251 -2.489,-3.222 0,-0.379 0.088,-3.07 2.527,-3.07 1.162,0 2.021,0.669 2.199,2.059 H -2.312 V 4.877 H 1.44 L 1.44,0 Z"
             style="fill:#ffffff;fill-opacity:1;fill-rule:nonzero;stroke:none"
             id="path106" />
        </g>
        <g
           id="g108"
           transform="translate(341.5303,102.495)">
          <path
             d="M 0,0 V 4.056 H -3.829 V 0 h -1.68 v 8.92 h 1.68 V 5.56 H 0 V 8.92 H 1.68 L 1.68,0 Z"
             style="fill:#ffffff;fill-opacity:1;fill-rule:nonzero;stroke:none"
             id="path110" />
        </g>
        <g
           id="g112"
           transform="translate(394.3115,111.4149)">
          <path
             d="m 0,0 v -6.772 c 0,-0.669 -0.266,-2.337 -2.83,-2.337 -0.215,0 -0.543,0 -1.036,0.113 v 1.642 c 0.455,-0.1 0.632,-0.125 0.885,-0.125 1.288,0 1.338,0.859 1.338,1.528 l 0,5.951 z"
             style="fill:#ffffff;fill-opacity:1;fill-rule:nonzero;stroke:none"
             id="path114" />
        </g>
        <g
           id="g116"
           transform="translate(449.9033,102.495)">
          <path
             d="M 0,0 -2.376,4.194 -3.828,2.526 V 0 h -1.655 v 8.92 h 1.655 V 4.826 L -0.253,8.92 H 1.705 L -1.213,5.56 1.907,0 Z"
             style="fill:#ffffff;fill-opacity:1;fill-rule:nonzero;stroke:none"
             id="path118" />
        </g>
        <g
           id="g120"
           transform="translate(87.6841,62.9251)">
          <path
             d="M 0,0 V 1.364 L 4.877,7.429 H 0.417 V 8.92 H 6.961 V 7.505 L 2.274,1.504 H 6.961 L 6.961,0 Z"
             style="fill:#ffffff;fill-opacity:1;fill-rule:nonzero;stroke:none"
             id="path122" />
        </g>
        <g
           id="g124"
           transform="translate(147.4712,62.9251)">
          <path
             d="M 0,0 -2.084,3.298 -4.119,0 h -1.933 l 2.994,4.839 -2.564,4.081 h 1.92 L -2.084,6.368 -0.531,8.92 H 1.402 L -1.112,4.839 1.908,0 Z"
             style="fill:#ffffff;fill-opacity:1;fill-rule:nonzero;stroke:none"
             id="path126" />
        </g>
        <g
           id="g128"
           transform="translate(203.6943,65.4144)">
          <path
             d="m 0,0 c -0.291,-0.759 -1.289,-2.717 -3.854,-2.717 -2.109,0 -4.169,1.441 -4.169,4.776 0,1.984 1.125,4.599 4.233,4.599 2.299,0 3.247,-1.478 3.626,-2.755 L -1.819,3.475 c -0.101,0.972 -0.923,1.654 -1.908,1.654 -1.453,0 -2.489,-1.111 -2.489,-3.095 0,-1.213 0.493,-3.172 2.476,-3.172 1.15,0 1.895,0.885 2.161,1.794 z"
             style="fill:#ffffff;fill-opacity:1;fill-rule:nonzero;stroke:none"
             id="path130" />
        </g>
        <g
           id="g132"
           transform="translate(255.5557,62.9251)">
          <path
             d="m 0,0 h -2.249 l -2.628,8.92 h 1.756 L -1.125,1.883 0.821,8.92 H 2.54 Z"
             style="fill:#ffffff;fill-opacity:1;fill-rule:nonzero;stroke:none"
             id="path134" />
        </g>
        <g
           id="g136"
           transform="translate(306.7158,64.3656)">
          <path
             d="m 0,0 h 2.198 c 1.138,0 1.554,0.581 1.554,1.238 0,1.251 -1.2,1.403 -1.895,1.403 H 0 Z m 0,3.892 h 1.681 c 0.745,0 1.642,0.239 1.642,1.124 0,0.91 -0.923,1.099 -1.593,1.099 H 0 Z m 2.337,3.587 c 1.87,0 2.704,-1.036 2.704,-2.185 C 5.041,4.561 4.637,3.601 3.563,3.449 4.384,3.298 5.458,2.628 5.458,1.086 5.458,-0.127 4.751,-1.44 2.451,-1.44 h -4.106 v 8.919 z"
             style="fill:#ffffff;fill-opacity:1;fill-rule:nonzero;stroke:none"
             id="path138" />
        </g>
        <g
           id="g140"
           transform="translate(364.3965,62.9251)">
          <path
             d="m 0,0 -3.904,6.254 c 0,0 0.101,-6.09 0.101,-6.254 h -1.63 V 8.92 H -3.93 L 0.025,2.628 c 0,0 -0.189,6.09 -0.202,6.292 h 1.643 l 0,-8.92 z"
             style="fill:#ffffff;fill-opacity:1;fill-rule:nonzero;stroke:none"
             id="path142" />
        </g>
        <g
           id="g144"
           transform="translate(418.9062,62.9251)">
          <path
             d="M 0,0 C 0,0.215 0.164,7.328 0.164,7.328 L -1.77,0 h -1.502 l -1.934,7.328 c 0,0 0.164,-7.037 0.164,-7.328 h -1.629 v 8.92 h 2.426 l 1.743,-6.62 1.718,6.62 h 2.413 l 0,-8.92 z"
             style="fill:#ffffff;fill-opacity:1;fill-rule:nonzero;stroke:none"
             id="path146" />
        </g>
        <g
           id="g148"
           transform="translate(516.8291,70.304)">
          <path
             d="m 0,0 c -0.291,-0.759 -1.289,-2.717 -3.854,-2.717 -2.11,0 -4.169,1.441 -4.169,4.776 0,1.984 1.125,4.599 4.232,4.599 2.3,0 3.247,-1.478 3.627,-2.755 L -1.819,3.475 c -0.102,0.972 -0.923,1.654 -1.909,1.654 -1.453,0 -2.489,-1.111 -2.489,-3.095 0,-1.213 0.493,-3.172 2.477,-3.172 1.15,0 1.895,0.885 2.161,1.794 z"
             style="fill:#ffffff;fill-opacity:1;fill-rule:nonzero;stroke:none"
             id="path150" />
        </g>
        <g
           id="g152"
           transform="translate(521.1465,75.2308)">
          <path
             d="M 0,0 V -7.416 H -1.668 V 0 H -4.094 V 1.504 H 2.464 L 2.464,0 Z"
             style="fill:#ffffff;fill-opacity:1;fill-rule:nonzero;stroke:none"
             id="path154" />
        </g>
        <g
           id="g156"
           transform="translate(526.5508,72.515)">
          <path
             d="m 0,0 h 1.289 c 1.2,0 1.958,0.354 1.958,1.402 0,0.96 -0.656,1.377 -1.73,1.377 H 0 Z M 1.997,4.22 C 3.753,4.22 4.94,3.07 4.94,1.39 4.94,0.53 4.6,-0.594 3.185,-1.062 L 5.168,-4.7 H 3.26 L 1.504,-1.39 H 0 V -4.7 h -1.654 v 8.92 z"
             style="fill:#ffffff;fill-opacity:1;fill-rule:nonzero;stroke:none"
             id="path158" />
        </g>
        <g
           id="g160"
           transform="translate(533.5977,67.8148)">
          <path
             d="M 0,0 V 8.92 H 1.681 V 1.517 H 5.218 V 0 Z"
             style="fill:#ffffff;fill-opacity:1;fill-rule:nonzero;stroke:none"
             id="path162" />
        </g>
        <g
           id="g164"
           transform="translate(499.3701,102.495)">
          <path
             d="M 0,0 V 8.92 H 1.681 V 1.517 H 5.218 V 0 Z"
             style="fill:#ffffff;fill-opacity:1;fill-rule:nonzero;stroke:none"
             id="path166" />
        </g>
        <g
           id="g168"
           transform="translate(69.6113,158.7879)">
          <path
             d="m 0,0 c 0.518,0.038 0.948,0.076 1.415,0.315 0.556,0.291 0.72,0.62 0.884,0.961 H 3.841 V -7.29 H 1.807 v 6.254 C 1.339,-1.238 1.226,-1.289 0,-1.314 Z"
             style="fill:#a7ba4c;fill-opacity:1;fill-rule:nonzero;stroke:none"
             id="path170" />
        </g>
        <g
           id="g172"
           transform="translate(121.9072,156.994)">
          <path
             d="m 0,0 v 0.303 c 0,2.021 1.301,2.919 3.007,2.919 1.756,0 2.906,-0.96 2.906,-2.616 0,-1.491 -0.809,-2.627 -3.31,-4.536 0,0 2.981,0.051 3.335,0.051 V -5.496 H 0.063 v 1.491 c 0.657,0.518 1.099,0.859 1.984,1.617 1.011,0.884 1.743,1.605 1.743,2.956 0,0.341 0,1.175 -0.872,1.175 -0.341,0 -0.935,-0.151 -0.935,-1.049 0,-0.215 0.026,-0.543 0.051,-0.808 z"
             style="fill:#a7ba4c;fill-opacity:1;fill-rule:nonzero;stroke:none"
             id="path174" />
        </g>
        <g
           id="g176"
           transform="translate(177.062,157.6258)">
          <path
             d="m 0,0 c 0.202,2.059 1.617,2.59 2.995,2.59 2.312,0 2.792,-1.479 2.792,-2.3 0,-1.073 -0.62,-1.63 -1.415,-1.907 1.074,-0.19 1.629,-0.973 1.629,-1.959 0,-0.809 -0.53,-2.703 -3.247,-2.703 -1.895,0 -2.918,1.136 -2.918,2.842 v 0.19 l 1.971,0.164 c 0,0 -0.013,-0.24 -0.013,-0.366 0,-0.796 0.468,-1.264 1.049,-1.264 0.67,0 1.124,0.468 1.124,1.264 0,0.972 -0.733,1.098 -1.263,1.098 -0.101,0 -0.278,-0.012 -0.278,-0.012 v 1.453 c 0,0 0.19,-0.013 0.291,-0.013 1.074,0 1.074,0.923 1.074,1.011 0,0.695 -0.506,0.973 -0.923,0.973 -0.871,0 -0.871,-0.872 -0.871,-1.238 z"
             style="fill:#a7ba4c;fill-opacity:1;fill-rule:nonzero;stroke:none"
             id="path178" />
        </g>
        <g
           id="g180"
           transform="translate(234.1357,157.8905)">
          <path
             d="M 0,0 -2.034,-3.02 H 0 Z m 1.983,-4.409 v -1.984 h -1.996 v 1.971 h -3.474 c 0,0.291 0.025,1.542 0.025,1.542 L 0.076,2.174 H 1.983 V -3.02 h 1.138 v -1.389 z"
             style="fill:#a7ba4c;fill-opacity:1;fill-rule:nonzero;stroke:none"
             id="path182" />
        </g>
        <g
           id="g184"
           transform="translate(284.7261,160.0389)">
          <path
             d="M 0,0 H 4.927 L 4.801,-1.617 H 1.566 L 1.364,-3.185 c 0.19,0.14 0.582,0.443 1.352,0.443 1.656,0 2.578,-1.276 2.578,-2.83 0,-1.49 -0.935,-3.133 -3.222,-3.133 -2.097,0 -2.931,1.39 -2.931,2.855 l 2.009,0.076 c 0,-0.846 0.265,-1.403 1.011,-1.403 0.998,0 1.061,1.125 1.061,1.592 0,1.049 -0.506,1.479 -1.087,1.479 -0.632,0 -0.808,-0.417 -0.897,-0.67 l -1.756,0.291 z"
             style="fill:#a7ba4c;fill-opacity:1;fill-rule:nonzero;stroke:none"
             id="path186" />
        </g>
        <g
           id="g188"
           transform="translate(341.2061,152.8495)">
          <path
             d="m 0,0 c 1.048,0 1.048,1.138 1.048,1.378 0,0.328 -0.05,1.313 -1.024,1.313 -0.581,0 -1.01,-0.455 -1.01,-1.313 C -0.986,0.91 -0.872,0 0,0 m 0.796,4.826 v 0.165 c 0,0.505 -0.329,0.859 -0.784,0.859 -1.099,0 -1.213,-1.63 -1.25,-2.704 0.215,0.467 0.884,0.999 1.856,0.999 1.036,0 2.363,-0.734 2.363,-2.628 0,-1.909 -1.263,-3.007 -3.07,-3.007 -1.504,0 -3.07,0.96 -3.07,4.219 0,2.325 0.543,4.65 3.336,4.65 2.173,0 2.526,-1.693 2.64,-2.325 z"
             style="fill:#a7ba4c;fill-opacity:1;fill-rule:nonzero;stroke:none"
             id="path190" />
        </g>
        <g
           id="g192"
           transform="translate(391.9492,160.0643)">
          <path
             d="M 0,0 H 6.052 V -1.542 C 4.826,-3.02 4.194,-4.183 3.677,-5.787 3.272,-7.05 3.184,-7.694 3.083,-8.566 H 0.732 c 0.266,1.187 0.923,4.156 3.349,6.911 l -4.081,0 z"
             style="fill:#a7ba4c;fill-opacity:1;fill-rule:nonzero;stroke:none"
             id="path194" />
        </g>
        <g
           id="g196"
           transform="translate(449.0859,158.7245)">
          <path
             d="m 0,0 c -0.581,0 -0.834,-0.467 -0.834,-0.998 0,-0.645 0.278,-1.086 0.822,-1.086 0.569,0 0.795,0.454 0.795,0.973 C 0.783,-0.442 0.493,0 0,0 m -0.025,-3.386 c -0.505,0 -0.998,-0.404 -0.998,-1.225 0,-0.898 0.493,-1.239 0.972,-1.239 0.608,0 0.998,0.379 0.998,1.239 0,0.568 -0.264,1.225 -0.972,1.225 m 3.019,-1.402 c 0,-1.958 -1.718,-2.577 -3.031,-2.577 -1.921,0 -3.033,1.073 -3.033,2.59 0,1.44 1.037,1.857 1.529,2.046 -0.342,0.203 -1.175,0.708 -1.175,1.933 0,1.049 0.72,2.287 2.704,2.287 1.491,0 2.653,-0.808 2.653,-2.349 0,-1.277 -0.796,-1.656 -1.213,-1.858 0.543,-0.202 1.566,-0.67 1.566,-2.072"
             style="fill:#a7ba4c;fill-opacity:1;fill-rule:nonzero;stroke:none"
             id="path198" />
        </g>
        <g
           id="g200"
           transform="translate(501.9121,158.7118)">
          <path
             d="m 0,0 c -1.048,0 -1.048,-1.137 -1.048,-1.377 0,-0.328 0.05,-1.313 1.024,-1.313 0.581,0 1.01,0.454 1.01,1.313 C 0.986,-0.909 0.872,0 0,0 m -0.783,-4.826 v -0.139 c 0,-0.543 0.316,-0.885 0.783,-0.885 1.087,0 1.201,1.643 1.238,2.704 -0.467,-0.846 -1.415,-0.998 -1.856,-0.998 -0.999,0 -2.363,0.695 -2.363,2.628 0,1.908 1.276,3.007 3.07,3.007 1.642,0 3.07,-1.049 3.07,-4.22 0,-2.35 -0.555,-4.649 -3.323,-4.649 -2.16,0 -2.565,1.718 -2.641,2.337 z"
             style="fill:#a7ba4c;fill-opacity:1;fill-rule:nonzero;stroke:none"
             id="path202" />
        </g>
        <g
           id="g204"
           transform="translate(557.3135,152.8748)">
          <path
             d="m 0,0 c 0.96,0 1.137,1.466 1.137,2.843 0,1.389 -0.228,2.906 -1.162,2.906 -0.898,0 -1.138,-1.251 -1.151,-3.196 C -1.176,1.566 -1.023,0 0,0 m 0,7.328 c 2.741,0 3.032,-3.247 3.032,-4.46 0,-1.945 -0.644,-4.434 -3.108,-4.434 -2.022,0 -2.969,1.768 -2.969,4.536 0,2.413 0.947,4.358 3.045,4.358"
             style="fill:#a7ba4c;fill-opacity:1;fill-rule:nonzero;stroke:none"
             id="path206" />
        </g>
        <path
           d="m 46.606,153.241 h 1.655 v -1.743 h -1.655 z m 1.655,7.177 v -3.411 l -0.48,-3.285 h -0.708 l -0.467,3.285 v 3.411 z"
           style="fill:#ffffff;fill-opacity:1;fill-rule:nonzero;stroke:none"
           id="path208" />
        <g
           id="g210"
           transform="translate(102.8691,158.4476)">
          <path
             d="m 0,0 c 0,-1.062 -0.505,-1.541 -1.542,-1.73 v 0.707 c 0.645,0.202 0.657,0.467 0.657,1.074 H -1.643 V 1.807 H 0 Z m -2.161,0 c 0,-1.062 -0.505,-1.541 -1.541,-1.73 v 0.707 c 0.644,0.202 0.657,0.467 0.657,1.074 h -0.758 v 1.756 h 1.642 z"
             style="fill:#ffffff;fill-opacity:1;fill-rule:nonzero;stroke:none"
             id="path212" />
        </g>
        <g
           id="g214"
           transform="translate(155.4712,156.6522)">
          <path
             d="M 0,0 -0.196,-1.187 H 1.205 L 1.387,0 Z M 2.801,0 2.605,-1.187 H 4.328 V -2.45 H 2.437 L 2.003,-5.154 H 0.588 l 0.434,2.704 h -1.386 l -0.421,-2.704 h -1.428 l 0.42,2.704 h -1.709 v 1.263 h 1.891 L -1.429,0 h -1.765 v 1.264 h 1.947 l 0.378,2.502 H 0.588 L 0.196,1.264 H 1.569 L 1.947,3.766 H 3.362 L 2.983,1.264 H 4.636 V 0 Z"
             style="fill:#ffffff;fill-opacity:1;fill-rule:nonzero;stroke:none"
             id="path216" />
        </g>
        <g
           id="g218"
           transform="translate(210.1284,152.9891)">
          <path
             d="M 0,0 C 0.354,0.062 1.213,0.341 1.213,1.187 1.213,2.021 0.24,2.211 0,2.261 Z m -1.162,5.937 c -0.291,-0.05 -1.024,-0.264 -1.024,-0.972 0,-0.404 0.203,-0.695 1.024,-0.847 z M 1.529,4.99 C 0.973,5.697 0.455,5.824 0,5.937 V 3.916 C 0.189,3.891 1.264,3.727 1.971,3.196 2.843,2.552 2.881,1.667 2.881,1.275 2.881,-0.455 1.503,-1.353 0,-1.491 v -1.441 h -1.162 v 1.441 c -1.365,0.253 -1.959,0.505 -2.919,1.68 l 1.276,0.973 c 0.19,-0.278 0.885,-1.061 1.643,-1.137 v 2.413 c -1.251,0.139 -1.946,0.531 -2.312,1.048 -0.139,0.215 -0.367,0.67 -0.367,1.226 0,0.266 0.051,0.974 0.544,1.567 0.328,0.392 0.96,0.909 2.135,1.035 V 8.68 H 0 V 7.314 C 1.516,7.176 2.35,6.367 2.729,5.937 Z"
             style="fill:#ffffff;fill-opacity:1;fill-rule:nonzero;stroke:none"
             id="path220" />
        </g>
        <g
           id="g222"
           transform="translate(425.377,150.5169)">
          <path
             d="m 0,0 c -0.564,0.41 -1.036,0.882 -1.416,1.364 -0.789,1.015 -1.189,2.235 -1.189,3.558 0,1.261 0.39,2.512 1.087,3.476 0.411,0.554 0.831,1.005 1.477,1.487 L 0.43,9.362 C 0.01,8.931 -0.123,8.777 -0.35,8.47 -0.995,7.557 -1.344,6.347 -1.344,5.035 c 0,-1.836 0.677,-3.507 1.795,-4.43 z"
             style="fill:#ffffff;fill-opacity:1;fill-rule:nonzero;stroke:none"
             id="path224" />
        </g>
        <g
           id="g226"
           transform="translate(261.7432,159.1585)">
          <path
             d="m 0,0 c -0.428,0 -0.776,-0.422 -0.776,-0.941 0,-0.519 0.348,-0.942 0.776,-0.942 0.428,0 0.776,0.423 0.776,0.942 C 0.776,-0.422 0.428,0 0,0 m 0,-3.083 c -1.089,0 -1.976,0.961 -1.976,2.142 0,1.18 0.887,2.141 1.976,2.141 1.089,0 1.976,-0.961 1.976,-2.141 0,-1.181 -0.887,-2.142 -1.976,-2.142"
             style="fill:#ffffff;fill-opacity:1;fill-rule:nonzero;stroke:none"
             id="path228" />
        </g>
        <g
           id="g230"
           transform="translate(265.1997,154.4662)">
          <path
             d="m 0,0 c -0.428,0 -0.776,-0.422 -0.776,-0.941 0,-0.519 0.348,-0.941 0.776,-0.941 0.428,0 0.776,0.422 0.776,0.941 C 0.776,-0.422 0.428,0 0,0 m 0,-3.083 c -1.089,0 -1.976,0.961 -1.976,2.142 C -1.976,0.239 -1.089,1.2 0,1.2 1.09,1.2 1.977,0.239 1.977,-0.941 1.977,-2.122 1.09,-3.083 0,-3.083"
             style="fill:#ffffff;fill-opacity:1;fill-rule:nonzero;stroke:none"
             id="path232" />
        </g>
        <g
           id="g234"
           transform="translate(260.2754,151.1966)">
          <path
             d="M 0,0 -0.78,0.625 6.238,9.391 7.019,8.766 Z"
             style="fill:#ffffff;fill-opacity:1;fill-rule:nonzero;stroke:none"
             id="path236" />
        </g>
        <g
           id="g238"
           transform="translate(317.2857,158.3035)">
          <path
             d="M 0,0 C -0.058,0.492 -0.469,0.778 -0.948,0.72 -1.407,0.665 -1.706,0.299 -1.634,-0.155 -1.582,-0.481 -1.448,-0.765 -1.02,-1.229 -0.583,-1.053 0.084,-0.717 0,0 m -1.566,-3.142 c -0.882,-0.539 -0.972,-1.102 -0.898,-1.469 0.109,-0.542 0.704,-1.133 1.64,-1.067 0.259,0.019 0.747,0.109 1.212,0.522 z M 3.45,-2.091 C 3.441,-2.229 3.44,-2.743 3.4,-2.881 3.337,-3.164 3.061,-4.208 2.43,-4.982 2.749,-5.229 2.96,-5.306 3.414,-5.274 3.469,-5.27 3.593,-5.261 3.717,-5.229 L 3.808,-6.468 C 2.556,-6.963 1.898,-6.476 1.496,-6.261 1.128,-6.505 0.402,-7.017 -0.72,-7.087 c -1.495,-0.093 -2.928,0.83 -3.281,2.26 -0.323,1.307 0.595,2.05 1.472,2.795 -0.218,0.241 -0.558,0.642 -0.712,1.41 -0.244,1.211 0.276,2.635 2.034,2.866 1.546,0.204 2.734,-0.801 2.834,-2.107 0.054,-0.712 -0.264,-1.865 -1.755,-2.523 0.474,-0.571 0.992,-1.122 1.492,-1.61 0.415,0.631 0.376,1.375 0.393,1.698 z"
             style="fill:#ffffff;fill-opacity:1;fill-rule:nonzero;stroke:none"
             id="path240" />
        </g>
        <g
           id="g242"
           transform="translate(371.082,158.2835)">
          <path
             d="m 0,0 c 0,-0.96 -0.67,-1.364 -1.579,-1.541 v 0.732 c 0.581,0.064 0.683,0.531 0.683,1.024 h -0.785 v 1.73 H 0 Z"
             style="fill:#ffffff;fill-opacity:1;fill-rule:nonzero;stroke:none"
             id="path244" />
        </g>
        <g
           id="g246"
           transform="translate(475.7422,151.1219)">
          <path
             d="m 0,0 c 1.118,0.923 1.795,2.594 1.795,4.43 0,1.312 -0.349,2.522 -0.994,3.435 -0.227,0.307 -0.36,0.461 -0.78,0.892 L 0.492,9.28 C 1.139,8.798 1.559,8.347 1.969,7.793 2.666,6.829 3.057,5.578 3.057,4.317 3.057,2.994 2.656,1.774 1.867,0.759 1.487,0.277 1.016,-0.195 0.451,-0.605 Z"
             style="fill:#ffffff;fill-opacity:1;fill-rule:nonzero;stroke:none"
             id="path248" />
        </g>
        <g
           id="g250"
           transform="translate(535.7867,154.8223)">
          <path
             d="m 0,0 c 0,-0.673 -0.727,-0.973 -1.314,-0.973 -0.641,0 -0.876,0.3 -0.876,0.652 0,0.534 0.587,0.652 1.175,0.737 0.492,0.075 0.801,0.192 1.015,0.299 z m 4.318,0.304 c 0,2.941 -2.392,5.334 -5.334,5.334 -2.94,0 -5.333,-2.393 -5.333,-5.334 0,-1.442 0.566,-2.792 1.593,-3.802 l 0.842,0.855 c -0.797,0.784 -1.235,1.83 -1.235,2.947 0,2.279 1.854,4.134 4.133,4.134 2.28,0 4.135,-1.855 4.135,-4.159 C 3.12,0.268 3.078,-0.973 2.38,-1.286 2.125,-1.4 1.53,-1.499 1.447,-0.973 1.328,-0.213 1.281,2.04 1.281,2.04 c 0,0.939 -0.673,1.517 -2.243,1.517 -2.243,0 -2.317,-1.368 -2.339,-1.72 l 1.303,-0.075 c 0,0.278 0.107,0.801 1.079,0.801 C -0.118,2.563 0,2.168 0,1.762 -0.342,1.645 -0.844,1.517 -1.646,1.367 -2.66,1.186 -3.547,0.726 -3.547,-0.438 c 0,-0.898 0.727,-1.634 1.944,-1.634 0.652,0 1.218,0.266 1.571,0.545 0,0 0.22,-0.756 1.149,-1.107 0.325,-0.123 1.02,-0.166 1.648,0.173 1.611,0.87 1.556,2.711 1.553,2.765"
             style="fill:#ffffff;fill-opacity:1;fill-rule:nonzero;stroke:none"
             id="path252" />
        </g>
        <g
           id="g254"
           transform="translate(554.1934,151.1966)">
          <path
             d="M 0,0 -0.781,0.625 6.237,9.391 7.019,8.766 Z"
             style="fill:#a7ba4c;fill-opacity:1;fill-rule:nonzero;stroke:none"
             id="path256" />
        </g>
        <g
           id="g258"
           transform="translate(566.3877,109.3436)">
          <path
             d="M 0,0 H -18.216 V 2 H -2 v 8.027 h 2 z"
             style="fill:#231f20;fill-opacity:1;fill-rule:nonzero;stroke:none"
             id="path260" />
        </g>
        <g
           id="g262"
           transform="translate(549.1927,113.8338)">
          <path
             d="M 0,0 -6.044,-3.49 0,-6.981 Z"
             style="fill:#231f20;fill-opacity:1;fill-rule:nonzero;stroke:none"
             id="path264" />
        </g>
        <path
           d="m 71.966,116.704 h -6.605 v 2.202 h 6.605 z"
           style="fill:#ffffff;fill-opacity:1;fill-rule:nonzero;stroke:none"
           id="path266" />
        <path
           d="m 125.994,116.676 h -6.605 v 2.202 h 6.605 z"
           style="fill:#ffffff;fill-opacity:1;fill-rule:nonzero;stroke:none"
           id="path268" />
        <path
           d="m 123.792,114.475 h -2.202 v 6.605 h 2.202 z"
           style="fill:#ffffff;fill-opacity:1;fill-rule:nonzero;stroke:none"
           id="path270" />
        <path
           d="m 180.599,118.19 h -6.606 v 2.202 h 6.606 z"
           style="fill:#ffffff;fill-opacity:1;fill-rule:nonzero;stroke:none"
           id="path272" />
        <path
           d="m 180.599,115.163 h -6.606 v 2.202 h 6.606 z"
           style="fill:#ffffff;fill-opacity:1;fill-rule:nonzero;stroke:none"
           id="path274" />
        <path
           d="M 290.017,116.264 H 281.1 v 2.202 h 8.917 z"
           style="fill:#ffffff;fill-opacity:1;fill-rule:nonzero;stroke:none"
           id="path276" />
        <g
           id="g278"
           transform="translate(234.2966,116.9424)">
          <path
             d="M 0,0 -2.862,4.954 -5.835,0 h 1.817 v -3.284 h 2.201 V 0 Z"
             style="fill:#ffffff;fill-opacity:1;fill-rule:nonzero;stroke:none"
             id="path280" />
        </g>
        <g
           id="g282"
           transform="translate(449.7744,114.0345)">
          <path
             d="m 0,0 h -3.914 v 8.101 h 3.837 v -2 H -1.914 V 2 H 0 Z"
             style="fill:#ffffff;fill-opacity:1;fill-rule:nonzero;stroke:none"
             id="path284" />
        </g>
        <g
           id="g286"
           transform="translate(503.7588,114.0345)">
          <path
             d="M 0,0 H -3.914 V 2 H -2 v 4.101 h -1.836 v 2 l 3.836,0 z"
             style="fill:#ffffff;fill-opacity:1;fill-rule:nonzero;stroke:none"
             id="path288" />
        </g>
        <g
           id="g290"
           transform="translate(342.0414,115.4323)">
          <path
             d="M 0,0 -2.19,1.777 0,3.675 V 6.322 L -5.303,1.726 0,-2.575 Z"
             style="fill:#ffffff;fill-opacity:1;fill-rule:nonzero;stroke:none"
             id="path292" />
        </g>
        <g
           id="g294"
           transform="translate(390.7987,115.4323)">
          <path
             d="M 0,0 2.19,1.777 0,3.675 V 6.322 L 5.303,1.726 0,-2.575 Z"
             style="fill:#ffffff;fill-opacity:1;fill-rule:nonzero;stroke:none"
             id="path296" />
        </g>
        <path
           d="m 307.487,75.564 h 1.384 v -1.426 h -1.384 z m 0.074,0.468 v 0.26 c 0,0.437 0.03,1.176 0.291,1.54 0.426,0.615 1.342,0.708 1.342,1.603 0,0.583 -0.542,0.988 -1.092,0.988 -0.802,0 -1.229,-0.613 -1.229,-1.363 l -1.259,0.146 c 0.032,0.333 0.073,0.656 0.198,0.968 0.395,1.009 1.322,1.436 2.362,1.436 1.291,0 2.456,-0.77 2.456,-2.175 0,-0.843 -0.416,-1.353 -1.165,-1.873 -0.572,-0.396 -0.688,-0.552 -0.688,-1.238 v -0.292 z"
           style="fill:#ffffff;fill-opacity:1;fill-rule:nonzero;stroke:none"
           id="path298" />
        <g
           id="g300"
           transform="translate(88.1221,36.0169)">
          <path
             d="m 0,0 h -1.491 l -1.314,1.566 h 1.504 l 0.543,-0.719 0.53,0.719 h 1.491 z m 3.095,-7.252 c -0.29,-0.759 -1.288,-2.717 -3.853,-2.717 -2.11,0 -4.17,1.441 -4.17,4.776 0,1.984 1.125,4.599 4.233,4.599 2.299,0 3.247,-1.478 3.626,-2.755 L 1.276,-3.777 c -0.101,0.972 -0.922,1.654 -1.908,1.654 -1.453,0 -2.489,-1.111 -2.489,-3.095 0,-1.213 0.493,-3.172 2.476,-3.172 1.15,0 1.895,0.885 2.161,1.794 z"
             style="fill:#231f20;fill-opacity:1;fill-rule:nonzero;stroke:none"
             id="path302" />
        </g>
        <g
           id="g304"
           transform="translate(97.9351,32.5931)">
          <path
             d="m 0,0 c -0.278,0.455 -0.922,1.326 -2.324,1.326 -0.38,0 -1.668,-0.139 -1.668,-1.086 0,-0.695 0.682,-0.859 1.63,-1.061 l 0.935,-0.202 c 1.402,-0.304 2.893,-0.847 2.893,-2.641 0,-2.211 -2.198,-2.881 -3.79,-2.881 -1.491,0 -3.109,0.531 -3.905,1.908 l 1.403,0.973 c 0.391,-0.581 1.124,-1.34 2.767,-1.34 0.973,0 1.718,0.404 1.718,1.176 0,0.732 -0.594,0.896 -1.718,1.149 l -1.137,0.253 c -1.137,0.252 -2.553,0.733 -2.553,2.477 0,1.579 1.277,2.779 3.525,2.779 0.797,0 2.363,-0.127 3.601,-1.807 z"
             style="fill:#231f20;fill-opacity:1;fill-rule:nonzero;stroke:none"
             id="path306" />
        </g>
        <g
           id="g308"
           transform="translate(255.5518,75.2044)">
          <path
             d="m 0,0 c 0,-0.96 -0.67,-1.364 -1.58,-1.541 v 0.732 c 0.582,0.064 0.683,0.531 0.683,1.024 h -0.784 v 1.73 H 0 Z"
             style="fill:#ffffff;fill-opacity:1;fill-rule:nonzero;stroke:none"
             id="path310" />
        </g>
        <g
           id="g312"
           transform="translate(152.5698,34.6253)">
          <path
             d="m 0,0 c -1.048,0 -1.048,-1.137 -1.048,-1.377 0,-0.328 0.05,-1.313 1.023,-1.313 0.581,0 1.011,0.454 1.011,1.313 C 0.986,-0.909 0.872,0 0,0 m -0.783,-4.826 v -0.139 c 0,-0.543 0.316,-0.885 0.783,-0.885 1.087,0 1.201,1.643 1.238,2.704 -0.467,-0.846 -1.415,-0.998 -1.857,-0.998 -0.998,0 -2.362,0.695 -2.362,2.628 0,1.908 1.275,3.007 3.07,3.007 1.642,0 3.07,-1.049 3.07,-4.22 0,-2.35 -0.556,-4.649 -3.323,-4.649 -2.16,0 -2.565,1.718 -2.641,2.337 z"
             style="fill:#a7ba4c;fill-opacity:1;fill-rule:nonzero;stroke:none"
             id="path314" />
        </g>
        <g
           id="g316"
           transform="translate(138.3926,28.7884)">
          <path
             d="m 0,0 c 0.96,0 1.137,1.466 1.137,2.843 0,1.389 -0.227,2.906 -1.162,2.906 -0.897,0 -1.138,-1.251 -1.15,-3.196 C -1.175,1.566 -1.023,0 0,0 m 0,7.328 c 2.742,0 3.032,-3.247 3.032,-4.46 0,-1.945 -0.644,-4.434 -3.108,-4.434 -2.021,0 -2.969,1.768 -2.969,4.536 0,2.413 0.948,4.358 3.045,4.358"
             style="fill:#a7ba4c;fill-opacity:1;fill-rule:nonzero;stroke:none"
             id="path318" />
        </g>
        <g
           id="g320"
           transform="translate(135.272,27.1107)">
          <path
             d="M 0,0 -0.78,0.625 6.238,9.391 7.019,8.766 Z"
             style="fill:#a7ba4c;fill-opacity:1;fill-rule:nonzero;stroke:none"
             id="path322" />
        </g>
        <path
           d="m 426.29,30.654 h -17.216 v 2 h 17.216 z"
           style="fill:#231f20;fill-opacity:1;fill-rule:nonzero;stroke:none"
           id="path324" />
        <g
           id="g326"
           transform="translate(410.0954,35.144)">
          <path
             d="M 0,0 -6.044,-3.49 0,-6.981 Z"
             style="fill:#231f20;fill-opacity:1;fill-rule:nonzero;stroke:none"
             id="path328" />
        </g>
        <g
           id="g330"
           transform="translate(47.3373,71.8755)">
          <path
             d="M 0,0 -9.401,9.401 -18.803,0 Z"
             style="fill:#231f20;fill-opacity:1;fill-rule:nonzero;stroke:none"
             id="path332" />
        </g>
        <g
           id="g334"
           transform="translate(47.3373,70.0238)">
          <path
             d="m 0,0 h -18.803 l 9.402,-9.401 z M -4.828,-2 -9.401,-6.573 -13.974,-2 Z"
             style="fill:#231f20;fill-opacity:1;fill-rule:nonzero;stroke:none"
             id="path336" />
        </g>
        <path
           d="m 94.643,77.687 h -6.826 v 1.364 h 6.826 z"
           style="fill:#ffffff;fill-opacity:1;fill-rule:nonzero;stroke:none"
           id="path338" />
        <g
           id="g340"
           transform="translate(93.7038,80.8166)">
          <path
             d="m 0,0 -3.817,-5.659 -1.131,0.763 3.817,5.659 z"
             style="fill:#ffffff;fill-opacity:1;fill-rule:nonzero;stroke:none"
             id="path342" />
        </g>
        <g
           id="g344"
           transform="translate(93.7038,75.9206)">
          <path
             d="M 0,0 -3.817,5.659 -4.948,4.896 -1.131,-0.763 Z"
             style="fill:#ffffff;fill-opacity:1;fill-rule:nonzero;stroke:none"
             id="path346" />
        </g>
        <g
           id="g348"
           transform="translate(148.3156,80.4814)">
          <path
             d="m 0,0 -4.266,-6.324 -1.588,1.071 4.265,6.325 z"
             style="fill:#ffffff;fill-opacity:1;fill-rule:nonzero;stroke:none"
             id="path350" />
        </g>
        <path
           d="m 200.918,78.612 h -1.679 v 1.679 h 1.679 z"
           style="fill:#ffffff;fill-opacity:1;fill-rule:nonzero;stroke:none"
           id="path352" />
        <path
           d="m 200.918,75.419 h -1.679 v 1.679 h 1.679 z"
           style="fill:#ffffff;fill-opacity:1;fill-rule:nonzero;stroke:none"
           id="path354" />
        <path
           d="m 255.495,78.612 h -1.679 v 1.679 h 1.679 z"
           style="fill:#ffffff;fill-opacity:1;fill-rule:nonzero;stroke:none"
           id="path356" />
        <path
           d="m 417.496,74.58 h -1.679 v 1.679 h 1.679 z"
           style="fill:#ffffff;fill-opacity:1;fill-rule:nonzero;stroke:none"
           id="path358" />
        <g
           id="g360"
           transform="translate(363.168,75.2044)">
          <path
             d="m 0,0 c 0,-0.96 -0.67,-1.364 -1.579,-1.541 v 0.732 c 0.581,0.064 0.683,0.531 0.683,1.024 h -0.785 v 1.73 H 0 Z"
             style="fill:#ffffff;fill-opacity:1;fill-rule:nonzero;stroke:none"
             id="path362" />
        </g>
        <path
           d="m 529.817,30.654 h -17.216 v 2 h 17.216 z"
           style="fill:#231f20;fill-opacity:1;fill-rule:nonzero;stroke:none"
           id="path364" />
        <g
           id="g366"
           transform="translate(528.7961,28.1631)">
          <path
             d="M 0,0 6.044,3.49 0,6.981 Z"
             style="fill:#231f20;fill-opacity:1;fill-rule:nonzero;stroke:none"
             id="path368" />
        </g>
        <path
           d="m 471.354,62.925 h -2 v 12.372 h 2 z"
           style="fill:#231f20;fill-opacity:1;fill-rule:nonzero;stroke:none"
           id="path370" />
        <g
           id="g372"
           transform="translate(473.8444,74.2755)">
          <path
             d="M 0,0 -3.49,6.044 -6.981,0 Z"
             style="fill:#231f20;fill-opacity:1;fill-rule:nonzero;stroke:none"
             id="path374" />
        </g>
        <path
           d="m 471.354,27.208 h -2 V 39.58 h 2 z"
           style="fill:#231f20;fill-opacity:1;fill-rule:nonzero;stroke:none"
           id="path376" />
        <g
           id="g378"
           transform="translate(466.8636,28.23)">
          <path
             d="M 0,0 3.49,-6.044 6.981,0 Z"
             style="fill:#231f20;fill-opacity:1;fill-rule:nonzero;stroke:none"
             id="path380" />
        </g>
        <path
           d="M 43.199,30.926 H 32.673 v 10.526 h 10.526 z"
           style="fill:#231f20;fill-opacity:1;fill-rule:nonzero;stroke:none"
           id="path382" />
        <path
           d="M 41.188,28.444 H 34.684 V 21.94 h 6.504 z m -2,-4.503 h -2.504 v 2.504 h 2.504 z"
           style="fill:#231f20;fill-opacity:1;fill-rule:nonzero;stroke:none"
           id="path384" />
        <path
           d="m 147.331,30.833 h -3.193 v 1.211 h 3.193 z"
           style="fill:#a7ba4c;fill-opacity:1;fill-rule:nonzero;stroke:none"
           id="path386" />
      </g>
    </g>
  </g>
</svg>
